Input #0, mov,mp4,m4a,3gp,3g2,mj2, from '/var/www/html/project/media/video/original/1000178318.mp4':
  Metadata:
    major_brand     : mp42
    minor_version   : 0
    compatible_brands: isommp42
    creation_time   : 2025-04-05T11:40:55.000000Z
    com.android.version: 14
  Duration: 00:00:40.21, start: 0.000000, bitrate: 11188 kb/s
    Stream #0:0(eng): Video: hevc (Main), 1 reference frame (hvc1 / 0x31637668), yuv420p(tv, bt709), 1920x1080 (1920x1088), 11059 kb/s, 30 fps, 30 tbr, 90k tbn, 90k tbc (default)
    Metadata:
      creation_time   : 2025-04-05T11:40:55.000000Z
      handler_name    : VideoHandle
    Stream #0:1(eng): Audio: aac (LC) (mp4a / 0x6134706D), 48000 Hz, stereo, fltp, 128 kb/s (default)
    Metadata:
      creation_time   : 2025-04-05T11:40:55.000000Z
      handler_name    : SoundHandle
Input #1, png_pipe, from '/var/www/html/project/static/images/templates/logo.png':
  Duration: N/A, bitrate: N/A
    Stream #1:0: Video: png, 1 reference frame, rgba(pc), 1920x1080 [SAR 2835:2835 DAR 16:9], 25 tbr, 25 tbn, 25 tbc
[h264 @ 0x55c45a68d140] Reinit context to 1280x720, pix_fmt: yuv420p
Input #2, mov,mp4,m4a,3gp,3g2,mj2, from '/var/www/html/project/static/images/templates/Codino.mp4':
  Metadata:
    major_brand     : mp42
    minor_version   : 1
    compatible_brands: isommp41mp42
    creation_time   : 2021-07-11T07:02:58.000000Z
  Duration: 00:00:02.00, start: 0.000000, bitrate: 1007 kb/s
    Stream #2:0(ita): Audio: aac (LC) (mp4a / 0x6134706D), 44100 Hz, stereo, fltp, 102 kb/s (default)
    Metadata:
      creation_time   : 2021-07-11T07:02:58.000000Z
      handler_name    : Core Media Audio
    Stream #2:1(und): Video: h264 (High), 1 reference frame (avc1 / 0x31637661), yuv420p(tv, bt709, progressive, left), 1280x720 [SAR 1:1 DAR 16:9], 813 kb/s, 25 fps, 25 tbr, 25k tbn, 50k tbc (default)
    Metadata:
      creation_time   : 2021-07-11T07:02:58.000000Z
      handler_name    : Core Media Video
[Parsed_scale_0 @ 0x55c45a6b78c0] w:1280 h:720 flags:'bilinear' interl:0
[Parsed_scale_2 @ 0x55c45a6b8d40] w:1280 h:720 flags:'bilinear' interl:0
[Parsed_scale_4 @ 0x55c45a790580] w:1280 h:720 flags:'bilinear' interl:0
Stream mapping:
  Stream #0:0 (hevc) -> scale
  Stream #0:1 (aac) -> concat:in0:a0
  Stream #1:0 (png) -> scale
  Stream #2:0 (aac) -> concat:in1:a0
  Stream #2:1 (h264) -> scale
  concat:out:v0 -> Stream #0:0 (libx264)
  concat:out:a0 -> Stream #0:1 (aac)
Press [q] to stop, [?] for help
[h264 @ 0x55c45aa31080] Reinit context to 1280x720, pix_fmt: yuv420p
[Parsed_scale_0 @ 0x55c45cc92540] w:1280 h:720 flags:'bilinear' interl:0
[Parsed_scale_2 @ 0x55c45cc92c00] w:1280 h:720 flags:'bilinear' interl:0
[Parsed_scale_4 @ 0x55c45cc9bd40] w:1280 h:720 flags:'bilinear' interl:0
[graph 0 input from stream 0:0 @ 0x55c45cca0540] w:1920 h:1080 pixfmt:yuv420p tb:1/90000 fr:30/1 sar:0/1 sws_param:flags=2
[graph 0 input from stream 1:0 @ 0x55c45cca15c0] w:1920 h:1080 pixfmt:rgba tb:1/25 fr:25/1 sar:2835/2835 sws_param:flags=2
[graph 0 input from stream 2:1 @ 0x55c45cca2640] w:1280 h:720 pixfmt:yuv420p tb:1/25000 fr:25/1 sar:1/1 sws_param:flags=2
[graph_0_in_0_1 @ 0x55c45cca3600] tb:1/48000 samplefmt:fltp samplerate:48000 chlayout:0x3
[graph_0_in_2_0 @ 0x55c45cca4740] tb:1/44100 samplefmt:fltp samplerate:44100 chlayout:0x3
[Parsed_concat_7 @ 0x55c45cc9e580] auto-inserting filter 'auto_resampler_0' between the filter 'graph_0_in_2_0' and the filter 'Parsed_concat_7'
[Parsed_scale_0 @ 0x55c45cc92540] w:1920 h:1080 fmt:yuv420p sar:0/1 -> w:1280 h:720 fmt:yuv420p sar:0/1 flags:0x2
[Parsed_setsar_1 @ 0x55c45cc929c0] w:1280 h:720 sar:0/1 dar:16/9 -> sar:1/1 dar:16/9
[Parsed_scale_2 @ 0x55c45cc92c00] w:1920 h:1080 fmt:rgba sar:2835/2835 -> w:1280 h:720 fmt:yuva420p sar:1/1 flags:0x2
[Parsed_setsar_3 @ 0x55c45a7c6c40] w:1280 h:720 sar:1/1 dar:16/9 -> sar:1/1 dar:16/9
[Parsed_overlay_6 @ 0x55c45cc9d480] main w:1280 h:720 fmt:yuv420p overlay w:1280 h:720 fmt:yuva420p
[Parsed_overlay_6 @ 0x55c45cc9d480] [framesync @ 0x55c45cc9d5e8] Selected 1/90000 time base
[Parsed_overlay_6 @ 0x55c45cc9d480] [framesync @ 0x55c45cc9d5e8] Sync level 2
[Parsed_scale_4 @ 0x55c45cc9bd40] w:1280 h:720 fmt:yuv420p sar:1/1 -> w:1280 h:720 fmt:yuv420p sar:1/1 flags:0x2
[Parsed_setsar_5 @ 0x55c45cc9c800] w:1280 h:720 sar:1/1 dar:16/9 -> sar:1/1 dar:16/9
[auto_resampler_0 @ 0x55c45ccab500] ch:2 chl:stereo fmt:fltp r:44100Hz -> ch:2 chl:stereo fmt:fltp r:48000Hz
[libx264 @ 0x55c45a6ebd80] using SAR=1/1
[libx264 @ 0x55c45a6ebd80] using cpu capabilities: MMX2 SSE2Fast SSSE3 SSE4.2 AVX FMA3 BMI2 AVX2
[libx264 @ 0x55c45a6ebd80] profile High, level 3.1
[libx264 @ 0x55c45a6ebd80] 264 - core 155 r2917 0a84d98 - H.264/MPEG-4 AVC codec - Copyleft 2003-2018 - http://www.videolan.org/x264.html - options: cabac=1 ref=1 deblock=1:0:0 analyse=0x3:0x113 me=hex subme=2 psy=1 psy_rd=1.00:0.00 mixed_ref=0 me_range=16 chroma_me=1 trellis=0 8x8dct=1 cqm=0 deadzone=21,11 fast_pskip=1 chroma_qp_offset=0 threads=22 lookahead_threads=5 sliced_threads=0 nr=0 decimate=1 interlaced=0 bluray_compat=0 constrained_intra=0 bframes=3 b_pyramid=2 b_adapt=1 b_bias=0 direct=1 weightb=1 open_gop=0 weightp=1 keyint=250 keyint_min=25 scenecut=40 intra_refresh=0 rc_lookahead=10 rc=crf mbtree=1 crf=18.0 qcomp=0.60 qpmin=0 qpmax=69 qpstep=4 ip_ratio=1.40 aq=1:1.00
Output #0, mp4, to '/var/www/html/project/media/video/watermarks/1000178318.mp4':
  Metadata:
    major_brand     : mp42
    minor_version   : 0
    compatible_brands: isommp42
    com.android.version: 14
    encoder         : Lavf58.29.100
    Stream #0:0: Video: h264 (libx264), 1 reference frame (avc1 / 0x31637661), yuv420p(progressive), 1280x720 [SAR 1:1 DAR 16:9], q=-1--1, 30 fps, 15360 tbn, 30 tbc (default)
    Metadata:
      encoder         : Lavc58.54.100 libx264
    Side data:
      cpb: bitrate max/min/avg: 0/0/0 buffer size: 0 vbv_delay: -1
    Stream #0:1: Audio: aac (LC) (mp4a / 0x6134706D), 48000 Hz, stereo, fltp, delay 1024, 128 kb/s (default)
    Metadata:
      encoder         : Lavc58.54.100 aac
[Parsed_overlay_6 @ 0x55c45cc9d480] [framesync @ 0x55c45cc9d5e8] Sync level 0
[Parsed_concat_7 @ 0x55c45cc9e580] EOF on in0:v0, 1 streams left in segment.
[Parsed_concat_7 @ 0x55c45cc9e580] EOF on in0:a0, 0 streams left in segment.
[Parsed_concat_7 @ 0x55c45cc9e580] Segment finished at pts=40212708
[Parsed_concat_7 @ 0x55c45cc9e580] EOF on in1:v0, 1 streams left in segment.
[Parsed_concat_7 @ 0x55c45cc9e580] EOF on in1:a0, 0 streams left in segment.
[Parsed_concat_7 @ 0x55c45cc9e580] Segment finished at pts=42231395
No more output streams to write to, finishing.
frame= 1256 fps= 49 q=-1.0 Lsize=   22847kB time=00:00:42.23 bitrate=4431.1kbits/s speed=1.65x    
[AVIOContext @ 0x55c45a65bec0] Statistics: 0 seeks, 51 writeouts
video:22144kB audio:656kB subtitle:0kB other streams:0kB global headers:0kB muxing overhead: 0.206278%
Input file #0 (/var/www/html/project/media/video/original/1000178318.mp4):
  Input stream #0:0 (video): 1206 packets read (55575256 bytes); 1206 frames decoded; 
  Input stream #0:1 (audio): 1885 packets read (643693 bytes); 1885 frames decoded (1930240 samples); 
  Total: 3091 packets (56218949 bytes) demuxed
Input file #1 (/var/www/html/project/static/images/templates/logo.png):
  Input stream #1:0 (video): 1 packets read (111578 bytes); 1 frames decoded; 
  Total: 1 packets (111578 bytes) demuxed
Input file #2 (/var/www/html/project/static/images/templates/Codino.mp4):
  Input stream #2:0 (audio): 89 packets read (26579 bytes); 87 frames decoded (89024 samples); 
  Input stream #2:1 (video): 50 packets read (203365 bytes); 50 frames decoded; 
  Total: 139 packets (229944 bytes) demuxed
Output file #0 (/var/www/html/project/media/video/watermarks/1000178318.mp4):
  Output stream #0:0 (video): 1256 frames encoded; 1256 packets muxed (22675457 bytes); 
  Output stream #0:1 (audio): 1980 frames encoded (2027137 samples); 1981 packets muxed (672209 bytes); 
  Total: 3237 packets (23347666 bytes) muxed
[AVIOContext @ 0x55c45a790280] Statistics: 2 seeks, 93 writeouts
[libx264 @ 0x55c45a6ebd80] frame I:7     Avg QP:17.46  size:156573
[libx264 @ 0x55c45a6ebd80] frame P:337   Avg QP:19.63  size: 41680
[libx264 @ 0x55c45a6ebd80] frame B:912   Avg QP:23.14  size:  8259
[libx264 @ 0x55c45a6ebd80] consecutive B-frames:  2.1%  2.5%  1.7% 93.6%
[libx264 @ 0x55c45a6ebd80] mb I  I16..4:  4.3% 15.3% 80.4%
[libx264 @ 0x55c45a6ebd80] mb P  I16..4:  3.2%  9.6%  3.7%  P16..4: 39.5% 17.4% 15.6%  0.0%  0.0%    skip:10.8%
[libx264 @ 0x55c45a6ebd80] mb B  I16..4:  0.7%  1.6%  0.2%  B16..8: 22.9%  9.0%  2.0%  direct:12.8%  skip:50.9%  L0:31.7% L1:41.4% BI:26.9%
[libx264 @ 0x55c45a6ebd80] 8x8 transform intra:56.3% inter:52.0%
[libx264 @ 0x55c45a6ebd80] coded y,uvDC,uvAC intra: 66.1% 57.1% 13.5% inter: 23.0% 12.7% 0.3%
[libx264 @ 0x55c45a6ebd80] i16 v,h,dc,p: 38% 34% 13% 15%
[libx264 @ 0x55c45a6ebd80] i8 v,h,dc,ddl,ddr,vr,hd,vl,hu: 18% 34% 13%  5%  5%  5%  7%  6%  7%
[libx264 @ 0x55c45a6ebd80] i4 v,h,dc,ddl,ddr,vr,hd,vl,hu: 19% 25%  9%  6%  9%  8% 10%  7%  7%
[libx264 @ 0x55c45a6ebd80] i8c dc,h,v,p: 49% 27% 16%  8%
[libx264 @ 0x55c45a6ebd80] Weighted P-Frames: Y:3.0% UV:0.0%
[libx264 @ 0x55c45a6ebd80] kb/s:4298.53
[aac @ 0x55c45a810ac0] Qavg: 1310.922
[AVIOContext @ 0x55c45a664e40] Statistics: 95538932 bytes read, 2366 seeks
[AVIOContext @ 0x55c45a65f980] Statistics: 111578 bytes read, 0 seeks
[AVIOContext @ 0x55c45a6aabc0] Statistics: 1530915 bytes read, 42 seeks
